<svg xmlns="http://www.w3.org/2000/svg" viewBox="0 0 48 48"><path fill="#FFF" d="M39.3 34.1v-4.8c2.6-1.5 4.4-4.3 4.4-7.5 0-4.8-3.9-8.7-8.7-8.7-1.7 0-3.4.5-4.7 1.4-1.5-5.8-6.6-10.1-12.8-10.1-7.2 0-13.1 5.9-13.1 13.1 0 3.9 1.7 7.3 4.4 9.7v5.4C3.5 29.5 0 23.9 0 17.5 0 7.8 7.8 0 17.5 0 24 0 29.7 3.6 32.7 8.9c.7-.1 1.5-.2 2.2-.2 7.2 0 13.1 5.9 13.1 13.1 0 5.7-3.7 10.6-8.7 12.3z"/><path fill="#5072FF" d="M15.3 21.8c1.2 0 2.2 1 2.2 2.2v4.4c0 1.2-1 2.2-2.2 2.2-1.2 0-2.2-1-2.2-2.2V24c0-1.2 1-2.2 2.2-2.2zm0 13.1c1.2 0 2.2 1 2.2 2.2v4.4c0 1.2-1 2.2-2.2 2.2-1.2 0-2.2-1-2.2-2.2v-4.4c0-1.2 1-2.2 2.2-2.2zm8.7-8.7c1.2 0 2.2 1 2.2 2.2v4.4c0 1.2-1 2.2-2.2 2.2-1.2 0-2.2-1-2.2-2.2v-4.4c0-1.2 1-2.2 2.2-2.2zm0 13.1c1.2 0 2.2 1 2.2 2.2v4.4c0 1.2-1 2.2-2.2 2.2-1.2 0-2.2-1-2.2-2.2v-4.4c0-1.3 1-2.2 2.2-2.2zm8.7-17.5c1.2 0 2.2 1 2.2 2.2v4.4c0 1.2-1 2.2-2.2 2.2-1.2 0-2.2-1-2.2-2.2V24c0-1.2 1-2.2 2.2-2.2zm0 13.1c1.2 0 2.2 1 2.2 2.2v4.4c0 1.2-1 2.2-2.2 2.2-1.2 0-2.2-1-2.2-2.2v-4.4c0-1.2 1-2.2 2.2-2.2z"/></svg>