<svg xmlns="http://www.w3.org/2000/svg" viewBox="0 0 48 48"><path fill="#FFF200" d="M46 26h-4c-1.1 0-2-.9-2-2s.9-2 2-2h4c1.1 0 2 .9 2 2s-.9 2-2 2zm-7.9-13.3c-.8.8-2 .8-2.8 0-.8-.8-.8-2 0-2.8L38.1 7c.8-.8 2-.8 2.8 0 .8.8.8 2 0 2.8l-2.8 2.9zM24 36c-6.6 0-12-5.4-12-12s5.4-12 12-12 12 5.4 12 12-5.4 12-12 12zm0-20c-4.4 0-8 3.6-8 8s3.6 8 8 8 8-3.6 8-8-3.6-8-8-8zm0-8c-1.1 0-2-.9-2-2V2c0-1.1.9-2 2-2s2 .9 2 2v4c0 1.1-.9 2-2 2zM9.9 12.7L7 9.9c-.7-.8-.7-2.1 0-2.9s2-.8 2.8 0l2.8 2.8c.8.8.8 2 0 2.8s-2 .9-2.7.1zM8 24c0 1.1-.9 2-2 2H2c-1.1 0-2-.9-2-2s.9-2 2-2h4c1.1 0 2 .9 2 2zm1.9 11.3c.8-.8 2-.8 2.8 0 .8.8.8 2 0 2.8L9.9 41c-.8.8-2 .8-2.8 0-.8-.8-.8-2 0-2.8l2.8-2.9zM24 40c1.1 0 2 .9 2 2v4c0 1.1-.9 2-2 2s-2-.9-2-2v-4c0-1.1.9-2 2-2zm14.1-4.7l2.8 2.8c.8.8.8 2 0 2.8-.8.8-2 .8-2.8 0l-2.8-2.8c-.8-.8-.8-2 0-2.8.8-.8 2.1-.8 2.8 0z"/></svg>